<mxfile host="65bd71144e">
    <diagram id="drqowJzIHoU7VS-kYPZM" name="ページ1">
        <mxGraphModel dx="1356" dy="776" grid="1" gridSize="10" guides="1" tooltips="1" connect="1" arrows="1" fold="1" page="1" pageScale="1" pageWidth="827" pageHeight="1169" math="0" shadow="0">
            <root>
                <mxCell id="0"/>
                <mxCell id="1" parent="0"/>
                <mxCell id="2" value="Model" style="rounded=0;whiteSpace=wrap;html=1;strokeColor=#FF0000;fillColor=#FFCCCC;" parent="1" vertex="1">
                    <mxGeometry x="40" y="30" width="120" height="60" as="geometry"/>
                </mxCell>
                <mxCell id="3" value="JavaScript" style="rounded=0;whiteSpace=wrap;html=1;strokeColor=#FFFF00;fillColor=#FFFFCC;" parent="1" vertex="1">
                    <mxGeometry x="890" y="30" width="120" height="60" as="geometry"/>
                </mxCell>
                <mxCell id="4" value="Servlet" style="rounded=0;whiteSpace=wrap;html=1;strokeColor=#80FF00;fillColor=#E6FFCC;" parent="1" vertex="1">
                    <mxGeometry x="354" y="30" width="120" height="60" as="geometry"/>
                </mxCell>
                <mxCell id="5" value="jsp" style="rounded=0;whiteSpace=wrap;html=1;strokeColor=#007FFF;fillColor=#CCE5FF;" parent="1" vertex="1">
                    <mxGeometry x="200" y="30" width="120" height="60" as="geometry"/>
                </mxCell>
                <mxCell id="6" value="CSS" style="rounded=0;whiteSpace=wrap;html=1;strokeColor=#7F00FF;fillColor=#E5CCFF;" parent="1" vertex="1">
                    <mxGeometry x="1220" y="30" width="120" height="60" as="geometry"/>
                </mxCell>
                <mxCell id="14" value="SingupServlet.java" style="rounded=0;whiteSpace=wrap;html=1;strokeColor=#80FF00;fillColor=#E6FFCC;" parent="1" vertex="1">
                    <mxGeometry x="354" y="180" width="120" height="60" as="geometry"/>
                </mxCell>
                <mxCell id="15" value="LoginServlet.java" style="rounded=0;whiteSpace=wrap;html=1;strokeColor=#80FF00;fillColor=#E6FFCC;" parent="1" vertex="1">
                    <mxGeometry x="354" y="110" width="120" height="60" as="geometry"/>
                </mxCell>
                <mxCell id="20" value="schedule_list.jsp&lt;br&gt;スケジュール閲覧&lt;br&gt;(詳細, 削除)" style="rounded=0;whiteSpace=wrap;html=1;strokeColor=#007FFF;fillColor=#CCE5FF;" parent="1" vertex="1">
                    <mxGeometry x="200" y="320" width="120" height="60" as="geometry"/>
                </mxCell>
                <mxCell id="21" value="signup.jsp&lt;br&gt;新規登録" style="rounded=0;whiteSpace=wrap;html=1;strokeColor=#007FFF;fillColor=#CCE5FF;" parent="1" vertex="1">
                    <mxGeometry x="200" y="180" width="120" height="60" as="geometry"/>
                </mxCell>
                <mxCell id="22" value="login.jsp&lt;br&gt;ログイン" style="rounded=0;whiteSpace=wrap;html=1;strokeColor=#007FFF;fillColor=#CCE5FF;" parent="1" vertex="1">
                    <mxGeometry x="200" y="110" width="120" height="60" as="geometry"/>
                </mxCell>
                <mxCell id="37" value="Actor" style="shape=umlActor;verticalLabelPosition=bottom;verticalAlign=top;html=1;outlineConnect=0;strokeColor=#000000;fillColor=#FFFFFF;" parent="1" vertex="1">
                    <mxGeometry y="20" width="30" height="60" as="geometry"/>
                </mxCell>
                <mxCell id="40" value="schedule_edit.jsp&lt;br&gt;スケジュール編集" style="rounded=0;whiteSpace=wrap;html=1;strokeColor=#007FFF;fillColor=#CCE5FF;" parent="1" vertex="1">
                    <mxGeometry x="200" y="465" width="120" height="60" as="geometry"/>
                </mxCell>
                <mxCell id="41" value="pet_home.jsp&lt;br&gt;ふれあい&lt;br&gt;きせかえ" style="rounded=0;whiteSpace=wrap;html=1;strokeColor=#007FFF;fillColor=#CCE5FF;" parent="1" vertex="1">
                    <mxGeometry x="200" y="630" width="120" height="60" as="geometry"/>
                </mxCell>
                <mxCell id="42" value="schedule_regist.jsp&lt;br&gt;スケジュール登録" style="rounded=0;whiteSpace=wrap;html=1;strokeColor=#007FFF;fillColor=#CCE5FF;" parent="1" vertex="1">
                    <mxGeometry x="200" y="390" width="120" height="60" as="geometry"/>
                </mxCell>
                <mxCell id="44" value="gacha.jsp&lt;br&gt;ガチャ&lt;br&gt;ガチャの結果" style="rounded=0;whiteSpace=wrap;html=1;strokeColor=#007FFF;fillColor=#CCE5FF;" parent="1" vertex="1">
                    <mxGeometry x="200" y="710" width="120" height="60" as="geometry"/>
                </mxCell>
                <mxCell id="47" value="DAO" style="rounded=0;whiteSpace=wrap;html=1;strokeColor=#FF8000;fillColor=#FFE6CC;" parent="1" vertex="1">
                    <mxGeometry x="510" y="30" width="120" height="60" as="geometry"/>
                </mxCell>
                <mxCell id="54" value="DatabaseTable" style="rounded=0;whiteSpace=wrap;html=1;strokeColor=#00FFFF;fillColor=#CCFFFF;" parent="1" vertex="1">
                    <mxGeometry x="700" y="30" width="120" height="60" as="geometry"/>
                </mxCell>
                <mxCell id="55" value="inquiry.jsp&lt;br&gt;お問い合わせ" style="rounded=0;whiteSpace=wrap;html=1;strokeColor=#007FFF;fillColor=#CCE5FF;" parent="1" vertex="1">
                    <mxGeometry x="200" y="250" width="120" height="60" as="geometry"/>
                </mxCell>
                <mxCell id="56" value="InquiryServlet.java" style="rounded=0;whiteSpace=wrap;html=1;strokeColor=#80FF00;fillColor=#E6FFCC;" parent="1" vertex="1">
                    <mxGeometry x="354" y="250" width="120" height="60" as="geometry"/>
                </mxCell>
                <mxCell id="57" value="Schedule_list&lt;br&gt;Servlet.java" style="rounded=0;whiteSpace=wrap;html=1;strokeColor=#80FF00;fillColor=#E6FFCC;" parent="1" vertex="1">
                    <mxGeometry x="354" y="320" width="120" height="60" as="geometry"/>
                </mxCell>
                <mxCell id="59" value="Schedule_edit&lt;br&gt;Servlet.java" style="rounded=0;whiteSpace=wrap;html=1;strokeColor=#80FF00;fillColor=#E6FFCC;" parent="1" vertex="1">
                    <mxGeometry x="354" y="465" width="120" height="60" as="geometry"/>
                </mxCell>
                <mxCell id="60" value="Pet_home&lt;br&gt;Servlet.java" style="rounded=0;whiteSpace=wrap;html=1;strokeColor=#80FF00;fillColor=#E6FFCC;" parent="1" vertex="1">
                    <mxGeometry x="354" y="630" width="120" height="60" as="geometry"/>
                </mxCell>
                <mxCell id="61" value="Schedule_regist&lt;br&gt;Servlet.java" style="rounded=0;whiteSpace=wrap;html=1;strokeColor=#80FF00;fillColor=#E6FFCC;" parent="1" vertex="1">
                    <mxGeometry x="354" y="395" width="120" height="60" as="geometry"/>
                </mxCell>
                <mxCell id="62" value="&lt;div style=&quot;&quot;&gt;&lt;span style=&quot;background-color: initial;&quot;&gt;[USER]&lt;/span&gt;&lt;/div&gt;&lt;div style=&quot;&quot;&gt;&lt;span style=&quot;background-color: initial;&quot;&gt;user_name&lt;/span&gt;&lt;/div&gt;&lt;div style=&quot;&quot;&gt;password&lt;/div&gt;&lt;div style=&quot;&quot;&gt;email&lt;/div&gt;&lt;div style=&quot;&quot;&gt;pet_name&lt;/div&gt;&lt;div style=&quot;&quot;&gt;pet_id&lt;/div&gt;&lt;div style=&quot;&quot;&gt;done_cnt&lt;/div&gt;&lt;div style=&quot;&quot;&gt;login_date&lt;/div&gt;&lt;div style=&quot;&quot;&gt;login_days&lt;/div&gt;&lt;div style=&quot;&quot;&gt;coin_cnt&lt;/div&gt;" style="rounded=0;whiteSpace=wrap;html=1;strokeColor=#00FFFF;fillColor=#CCFFFF;align=center;" parent="1" vertex="1">
                    <mxGeometry x="700" y="120" width="120" height="150" as="geometry"/>
                </mxCell>
                <mxCell id="63" value="[SCHEDULE]&lt;br&gt;user_name&lt;br&gt;Schedule_name&lt;br&gt;start_date&lt;br style=&quot;border-color: var(--border-color);&quot;&gt;finish_date&lt;br&gt;start_time&lt;br&gt;finish_time&lt;br&gt;content" style="rounded=0;whiteSpace=wrap;html=1;strokeColor=#00FFFF;fillColor=#CCFFFF;" parent="1" vertex="1">
                    <mxGeometry x="700" y="290" width="120" height="130" as="geometry"/>
                </mxCell>
                <mxCell id="65" value="[PET]&lt;br&gt;pet_id&lt;br&gt;pet_img_path" style="rounded=0;whiteSpace=wrap;html=1;strokeColor=#00FFFF;fillColor=#CCFFFF;" parent="1" vertex="1">
                    <mxGeometry x="700" y="440" width="120" height="70" as="geometry"/>
                </mxCell>
                <mxCell id="66" value="[GACHA]&lt;br&gt;pet_id&lt;br&gt;closet_id&lt;br&gt;closet_path&lt;br&gt;closet_name&lt;br&gt;closet_kind_id&lt;br&gt;rarity" style="rounded=0;whiteSpace=wrap;html=1;strokeColor=#00FFFF;fillColor=#CCFFFF;" parent="1" vertex="1">
                    <mxGeometry x="700" y="850" width="120" height="120" as="geometry"/>
                </mxCell>
                <mxCell id="69" value="[CLOSET]&lt;br&gt;user_name&lt;br&gt;closet_img_id&lt;br&gt;closet_kind_id&lt;br&gt;last_closet" style="rounded=0;whiteSpace=wrap;html=1;strokeColor=#00FFFF;fillColor=#CCFFFF;" parent="1" vertex="1">
                    <mxGeometry x="700" y="740" width="120" height="90" as="geometry"/>
                </mxCell>
                <mxCell id="90" value="[MESSAGE]&lt;br&gt;pet_id&lt;br&gt;message_id&lt;br&gt;message_content" style="rounded=0;whiteSpace=wrap;html=1;strokeColor=#00FFFF;fillColor=#CCFFFF;" parent="1" vertex="1">
                    <mxGeometry x="700" y="540" width="120" height="70" as="geometry"/>
                </mxCell>
                <mxCell id="93" value="[SCHEDULE_COLOR]&lt;br&gt;color_id&lt;br&gt;color_code&lt;br&gt;color_name" style="rounded=0;whiteSpace=wrap;html=1;strokeColor=#00FFFF;fillColor=#CCFFFF;" parent="1" vertex="1">
                    <mxGeometry x="700" y="640" width="120" height="70" as="geometry"/>
                </mxCell>
                <mxCell id="94" value="modal_detail.js&lt;br&gt;スケジュール詳細&lt;br&gt;モーダル" style="rounded=0;whiteSpace=wrap;html=1;strokeColor=#FFFF00;fillColor=#FFFFCC;" parent="1" vertex="1">
                    <mxGeometry x="890" y="120" width="120" height="60" as="geometry"/>
                </mxCell>
                <mxCell id="95" value="[CDN]&lt;br&gt;jQuery.min.js" style="rounded=0;whiteSpace=wrap;html=1;strokeColor=#FFFF00;fillColor=#FFFFCC;" parent="1" vertex="1">
                    <mxGeometry x="1040" y="30" width="120" height="60" as="geometry"/>
                </mxCell>
                <mxCell id="96" value="menu.js&lt;br&gt;ハンバーガー&lt;br&gt;メニュー" style="rounded=0;whiteSpace=wrap;html=1;strokeColor=#FFFF00;fillColor=#FFFFCC;" parent="1" vertex="1">
                    <mxGeometry x="890" y="390" width="120" height="60" as="geometry"/>
                </mxCell>
                <mxCell id="97" value="[INQUIRY]&lt;br&gt;inquiry_id&lt;br&gt;user_name&lt;br&gt;email&lt;br&gt;inquery_content" style="rounded=0;whiteSpace=wrap;html=1;strokeColor=#00FFFF;fillColor=#CCFFFF;" parent="1" vertex="1">
                    <mxGeometry x="700" y="990" width="120" height="90" as="geometry"/>
                </mxCell>
                <mxCell id="99" value="GachaServlet.java" style="rounded=0;whiteSpace=wrap;html=1;strokeColor=#80FF00;fillColor=#E6FFCC;" parent="1" vertex="1">
                    <mxGeometry x="354" y="710" width="120" height="60" as="geometry"/>
                </mxCell>
                <mxCell id="101" value="modal_detail.css&lt;br&gt;モダールウィンドウ" style="rounded=0;whiteSpace=wrap;html=1;strokeColor=#7F00FF;fillColor=#E5CCFF;" parent="1" vertex="1">
                    <mxGeometry x="1220" y="880" width="120" height="60" as="geometry"/>
                </mxCell>
                <mxCell id="111" value="" style="group" parent="1" vertex="1" connectable="0">
                    <mxGeometry x="1390" y="30" width="140" height="80" as="geometry"/>
                </mxCell>
                <mxCell id="109" value="content" style="rounded=0;whiteSpace=wrap;html=1;fillStyle=auto;fillColor=default;gradientColor=none;" parent="111" vertex="1">
                    <mxGeometry width="140.00000000000003" height="80" as="geometry"/>
                </mxCell>
                <mxCell id="110" value="imgfolder" style="rounded=0;whiteSpace=wrap;html=1;fillStyle=auto;fillColor=default;gradientColor=none;" parent="111" vertex="1">
                    <mxGeometry width="140.00000000000003" height="16" as="geometry"/>
                </mxCell>
                <mxCell id="130" value="calendar.js&lt;br&gt;カレンダー" style="rounded=0;whiteSpace=wrap;html=1;strokeColor=#FFFF00;fillColor=#FFFFCC;" parent="1" vertex="1">
                    <mxGeometry x="890" y="550" width="120" height="60" as="geometry"/>
                </mxCell>
                <mxCell id="131" value="push.js&lt;br&gt;プッシュ通知" style="rounded=0;whiteSpace=wrap;html=1;strokeColor=#FFFF00;fillColor=#FFFFCC;" parent="1" vertex="1">
                    <mxGeometry x="890" y="470" width="120" height="60" as="geometry"/>
                </mxCell>
                <mxCell id="132" value="User.java&lt;br&gt;ユーザ名&lt;br&gt;パスワード&lt;br&gt;メールアドレス&lt;br&gt;ペット名&lt;br&gt;ペット種類ID&lt;br&gt;スケジュール完了数" style="rounded=0;whiteSpace=wrap;html=1;strokeColor=#FF0000;fillColor=#FFCCCC;" parent="1" vertex="1">
                    <mxGeometry x="40" y="120" width="120" height="120" as="geometry"/>
                </mxCell>
                <mxCell id="133" value="Schedule.java&lt;br&gt;ユーザ名&lt;br&gt;スケジュール名&lt;br&gt;開始日時&lt;br&gt;終了日時&lt;br&gt;内容" style="rounded=0;whiteSpace=wrap;html=1;strokeColor=#FF0000;fillColor=#FFCCCC;" parent="1" vertex="1">
                    <mxGeometry x="40" y="270" width="120" height="100" as="geometry"/>
                </mxCell>
                <mxCell id="134" value="Pet.java&lt;br&gt;ユーザ名&lt;br&gt;ペット名&lt;br&gt;ペット種類ID&lt;br&gt;&lt;br&gt;*着せ替え数による&lt;br&gt;(きせかえ画像ID&lt;br&gt;きせかえ種類ID)" style="rounded=0;whiteSpace=wrap;html=1;strokeColor=#FF0000;fillColor=#FFCCCC;" parent="1" vertex="1">
                    <mxGeometry x="40" y="410" width="120" height="120" as="geometry"/>
                </mxCell>
                <mxCell id="135" value="Schedule_list&lt;br&gt;DAO.java" style="rounded=0;whiteSpace=wrap;html=1;strokeColor=#FF8000;fillColor=#FFE6CC;" parent="1" vertex="1">
                    <mxGeometry x="510" y="320" width="120" height="60" as="geometry"/>
                </mxCell>
                <mxCell id="136" value="InquiryDAO.java" style="rounded=0;whiteSpace=wrap;html=1;strokeColor=#FF8000;fillColor=#FFE6CC;" parent="1" vertex="1">
                    <mxGeometry x="510" y="250" width="120" height="60" as="geometry"/>
                </mxCell>
                <mxCell id="137" value="SignupDAO.java" style="rounded=0;whiteSpace=wrap;html=1;strokeColor=#FF8000;fillColor=#FFE6CC;" parent="1" vertex="1">
                    <mxGeometry x="510" y="180" width="120" height="60" as="geometry"/>
                </mxCell>
                <mxCell id="138" value="Schedule_edit&lt;br&gt;DAO.java" style="rounded=0;whiteSpace=wrap;html=1;strokeColor=#FF8000;fillColor=#FFE6CC;" parent="1" vertex="1">
                    <mxGeometry x="510" y="465" width="120" height="60" as="geometry"/>
                </mxCell>
                <mxCell id="139" value="Schedule_regist&lt;br&gt;DAO.java" style="rounded=0;whiteSpace=wrap;html=1;strokeColor=#FF8000;fillColor=#FFE6CC;" parent="1" vertex="1">
                    <mxGeometry x="510" y="395" width="120" height="60" as="geometry"/>
                </mxCell>
                <mxCell id="141" value="Pet_home&lt;br&gt;DAO.java" style="rounded=0;whiteSpace=wrap;html=1;strokeColor=#FF8000;fillColor=#FFE6CC;" parent="1" vertex="1">
                    <mxGeometry x="510" y="630" width="120" height="60" as="geometry"/>
                </mxCell>
                <mxCell id="142" value="Schedule_delete&lt;br&gt;DAO.java" style="rounded=0;whiteSpace=wrap;html=1;strokeColor=#FF8000;fillColor=#FFE6CC;" parent="1" vertex="1">
                    <mxGeometry x="510" y="550" width="120" height="60" as="geometry"/>
                </mxCell>
                <mxCell id="143" value="LoginDAO.java&lt;br style=&quot;border-color: var(--border-color);&quot;&gt;ログイン" style="rounded=0;whiteSpace=wrap;html=1;strokeColor=#FF8000;fillColor=#FFE6CC;" parent="1" vertex="1">
                    <mxGeometry x="510" y="110" width="120" height="60" as="geometry"/>
                </mxCell>
                <mxCell id="144" value="GachaDAO.java" style="rounded=0;whiteSpace=wrap;html=1;strokeColor=#FF8000;fillColor=#FFE6CC;" parent="1" vertex="1">
                    <mxGeometry x="510" y="710" width="120" height="60" as="geometry"/>
                </mxCell>
                <mxCell id="146" value="radio_img.js&lt;br&gt;ラジオボタン画像" style="rounded=0;whiteSpace=wrap;html=1;strokeColor=#FFFF00;fillColor=#FFFFCC;" parent="1" vertex="1">
                    <mxGeometry x="890" y="880" width="120" height="60" as="geometry"/>
                </mxCell>
                <mxCell id="147" value="gacha.js&lt;br&gt;ガチャの演出" style="rounded=0;whiteSpace=wrap;html=1;strokeColor=#FFFF00;fillColor=#FFFFCC;" parent="1" vertex="1">
                    <mxGeometry x="890" y="800" width="120" height="60" as="geometry"/>
                </mxCell>
                <mxCell id="148" value="message.js&lt;br&gt;ひとことメッセージ" style="rounded=0;whiteSpace=wrap;html=1;strokeColor=#FFFF00;fillColor=#FFFFCC;" parent="1" vertex="1">
                    <mxGeometry x="890" y="714.5" width="120" height="60" as="geometry"/>
                </mxCell>
                <mxCell id="149" value="speech_bubble.js&lt;br&gt;ふきだしメッセージ" style="rounded=0;whiteSpace=wrap;html=1;strokeColor=#FFFF00;fillColor=#FFFFCC;" parent="1" vertex="1">
                    <mxGeometry x="890" y="630" width="120" height="60" as="geometry"/>
                </mxCell>
                <mxCell id="151" value="motion.js&lt;br&gt;モーション" style="rounded=0;whiteSpace=wrap;html=1;strokeColor=#FFFF00;fillColor=#FFFFCC;" parent="1" vertex="1">
                    <mxGeometry x="890" y="1299" width="120" height="60" as="geometry"/>
                </mxCell>
                <mxCell id="152" value="error_message_&lt;br&gt;login.js&lt;br&gt;ログイン画面&lt;br&gt;エラーメッセージ" style="rounded=0;whiteSpace=wrap;html=1;strokeColor=#FFFF00;fillColor=#FFFFCC;" parent="1" vertex="1">
                    <mxGeometry x="890" y="960" width="120" height="60" as="geometry"/>
                </mxCell>
                <mxCell id="154" value="error_message_&lt;br&gt;signup.js&lt;br&gt;新規登録画面&lt;br&gt;エラーメッセージ" style="rounded=0;whiteSpace=wrap;html=1;strokeColor=#FFFF00;fillColor=#FFFFCC;" parent="1" vertex="1">
                    <mxGeometry x="890" y="1040" width="120" height="60" as="geometry"/>
                </mxCell>
                <mxCell id="155" value="[CDN]&lt;br&gt;modaal.min.js" style="rounded=0;whiteSpace=wrap;html=1;strokeColor=#FFFF00;fillColor=#FFFFCC;" parent="1" vertex="1">
                    <mxGeometry x="1040" y="120" width="120" height="60" as="geometry"/>
                </mxCell>
                <mxCell id="156" value="[CDN]&lt;br&gt;push.min.js" style="rounded=0;whiteSpace=wrap;html=1;strokeColor=#FFFF00;fillColor=#FFFFCC;" parent="1" vertex="1">
                    <mxGeometry x="1040" y="280" width="120" height="60" as="geometry"/>
                </mxCell>
                <mxCell id="157" value="menu.css&lt;br&gt;ハンバーガーメニュー" style="rounded=0;whiteSpace=wrap;html=1;strokeColor=#7F00FF;fillColor=#E5CCFF;" parent="1" vertex="1">
                    <mxGeometry x="1220" y="790" width="120" height="60" as="geometry"/>
                </mxCell>
                <mxCell id="158" value="login.css" style="rounded=0;whiteSpace=wrap;html=1;strokeColor=#7F00FF;fillColor=#E5CCFF;" parent="1" vertex="1">
                    <mxGeometry x="1220" y="120" width="120" height="60" as="geometry"/>
                </mxCell>
                <mxCell id="159" value="schedule_list.css" style="rounded=0;whiteSpace=wrap;html=1;strokeColor=#7F00FF;fillColor=#E5CCFF;" parent="1" vertex="1">
                    <mxGeometry x="1220" y="362.5" width="120" height="60" as="geometry"/>
                </mxCell>
                <mxCell id="160" value="inquiry.css" style="rounded=0;whiteSpace=wrap;html=1;strokeColor=#7F00FF;fillColor=#E5CCFF;" parent="1" vertex="1">
                    <mxGeometry x="1220" y="280" width="120" height="60" as="geometry"/>
                </mxCell>
                <mxCell id="161" value="signup.css" style="rounded=0;whiteSpace=wrap;html=1;strokeColor=#7F00FF;fillColor=#E5CCFF;" parent="1" vertex="1">
                    <mxGeometry x="1220" y="197.5" width="120" height="60" as="geometry"/>
                </mxCell>
                <mxCell id="162" value="gacha.css" style="rounded=0;whiteSpace=wrap;html=1;strokeColor=#7F00FF;fillColor=#E5CCFF;" parent="1" vertex="1">
                    <mxGeometry x="1220" y="700" width="120" height="60" as="geometry"/>
                </mxCell>
                <mxCell id="163" value="pet_home.css" style="rounded=0;whiteSpace=wrap;html=1;strokeColor=#7F00FF;fillColor=#E5CCFF;" parent="1" vertex="1">
                    <mxGeometry x="1220" y="610" width="120" height="60" as="geometry"/>
                </mxCell>
                <mxCell id="164" value="schedule_edit.css" style="rounded=0;whiteSpace=wrap;html=1;strokeColor=#7F00FF;fillColor=#E5CCFF;" parent="1" vertex="1">
                    <mxGeometry x="1220" y="525" width="120" height="60" as="geometry"/>
                </mxCell>
                <mxCell id="165" value="schedule_regist.css" style="rounded=0;whiteSpace=wrap;html=1;strokeColor=#7F00FF;fillColor=#E5CCFF;" parent="1" vertex="1">
                    <mxGeometry x="1220" y="445" width="120" height="60" as="geometry"/>
                </mxCell>
                <mxCell id="166" value="error_message_&lt;br&gt;inquiry.js&lt;br&gt;お問い合わせ画面&lt;br&gt;エラーメッセージ" style="rounded=0;whiteSpace=wrap;html=1;strokeColor=#FFFF00;fillColor=#FFFFCC;" parent="1" vertex="1">
                    <mxGeometry x="890" y="1120" width="120" height="60" as="geometry"/>
                </mxCell>
                <mxCell id="167" value="error_message_&lt;br&gt;inquiry.js&lt;br&gt;スケジュール&lt;br&gt;登録,編集画面&lt;br&gt;エラーメッセージ" style="rounded=0;whiteSpace=wrap;html=1;strokeColor=#FFFF00;fillColor=#FFFFCC;" parent="1" vertex="1">
                    <mxGeometry x="890" y="1210" width="120" height="60" as="geometry"/>
                </mxCell>
                <mxCell id="168" value="modal_closet.js&lt;br&gt;きせかえ&lt;br&gt;モーダル" style="rounded=0;whiteSpace=wrap;html=1;strokeColor=#FFFF00;fillColor=#FFFFCC;" parent="1" vertex="1">
                    <mxGeometry x="890" y="210" width="120" height="60" as="geometry"/>
                </mxCell>
                <mxCell id="169" value="modal_gacha_result.js&lt;br&gt;ガチャ結果&lt;br&gt;モーダル" style="rounded=0;whiteSpace=wrap;html=1;strokeColor=#FFFF00;fillColor=#FFFFCC;" parent="1" vertex="1">
                    <mxGeometry x="890" y="302.5" width="120" height="60" as="geometry"/>
                </mxCell>
                <mxCell id="170" value="modal_gacha_result.css&lt;br&gt;モダールウィンドウ" style="rounded=0;whiteSpace=wrap;html=1;strokeColor=#7F00FF;fillColor=#E5CCFF;" parent="1" vertex="1">
                    <mxGeometry x="1220" y="1040" width="120" height="60" as="geometry"/>
                </mxCell>
                <mxCell id="171" value="modal_closet.css&lt;br&gt;モダールウィンドウ" style="rounded=0;whiteSpace=wrap;html=1;strokeColor=#7F00FF;fillColor=#E5CCFF;" parent="1" vertex="1">
                    <mxGeometry x="1220" y="960" width="120" height="60" as="geometry"/>
                </mxCell>
                <mxCell id="175" value="" style="group" parent="1" vertex="1" connectable="0">
                    <mxGeometry x="1390" y="130" width="140" height="80" as="geometry"/>
                </mxCell>
                <mxCell id="176" value="ロゴとかその他画像" style="rounded=0;whiteSpace=wrap;html=1;fillStyle=auto;fillColor=default;gradientColor=none;" parent="175" vertex="1">
                    <mxGeometry width="140.00000000000003" height="80" as="geometry"/>
                </mxCell>
                <mxCell id="177" value="img" style="rounded=0;whiteSpace=wrap;html=1;fillStyle=auto;fillColor=default;gradientColor=none;" parent="175" vertex="1">
                    <mxGeometry width="140.00000000000003" height="16" as="geometry"/>
                </mxCell>
                <mxCell id="181" value="" style="group" parent="1" vertex="1" connectable="0">
                    <mxGeometry x="1540" y="230" width="140" height="80" as="geometry"/>
                </mxCell>
                <mxCell id="182" value="レア度２の背景" style="rounded=0;whiteSpace=wrap;html=1;fillStyle=auto;fillColor=default;gradientColor=none;" parent="181" vertex="1">
                    <mxGeometry width="140.00000000000003" height="80" as="geometry"/>
                </mxCell>
                <mxCell id="183" value="imgbackgroung_rare2" style="rounded=0;whiteSpace=wrap;html=1;fillStyle=auto;fillColor=default;gradientColor=none;" parent="181" vertex="1">
                    <mxGeometry width="140.00000000000003" height="16" as="geometry"/>
                </mxCell>
                <mxCell id="184" value="" style="group" parent="1" vertex="1" connectable="0">
                    <mxGeometry x="1690" y="230" width="140" height="80" as="geometry"/>
                </mxCell>
                <mxCell id="185" value="レア度３の背景" style="rounded=0;whiteSpace=wrap;html=1;fillStyle=auto;fillColor=default;gradientColor=none;" parent="184" vertex="1">
                    <mxGeometry width="140.00000000000003" height="80" as="geometry"/>
                </mxCell>
                <mxCell id="186" value="imgbackgroung_rare3" style="rounded=0;whiteSpace=wrap;html=1;fillStyle=auto;fillColor=default;gradientColor=none;" parent="184" vertex="1">
                    <mxGeometry width="140.00000000000003" height="16" as="geometry"/>
                </mxCell>
                <mxCell id="190" value="" style="group" parent="1" vertex="1" connectable="0">
                    <mxGeometry x="1390" y="450" width="140" height="80" as="geometry"/>
                </mxCell>
                <mxCell id="191" value="ペット1&lt;br&gt;モーション3部位" style="rounded=0;whiteSpace=wrap;html=1;fillStyle=auto;fillColor=default;gradientColor=none;" parent="190" vertex="1">
                    <mxGeometry width="140.00000000000003" height="80" as="geometry"/>
                </mxCell>
                <mxCell id="192" value="imgmotion1" style="rounded=0;whiteSpace=wrap;html=1;fillStyle=auto;fillColor=default;gradientColor=none;" parent="190" vertex="1">
                    <mxGeometry width="140.00000000000003" height="16" as="geometry"/>
                </mxCell>
                <mxCell id="193" value="" style="group" parent="1" vertex="1" connectable="0">
                    <mxGeometry x="1390" y="340" width="140" height="80" as="geometry"/>
                </mxCell>
                <mxCell id="194" value="ペット1&lt;br&gt;5部位のパーツ" style="rounded=0;whiteSpace=wrap;html=1;fillStyle=auto;fillColor=default;gradientColor=none;" parent="193" vertex="1">
                    <mxGeometry width="140.00000000000003" height="80" as="geometry"/>
                </mxCell>
                <mxCell id="195" value="imgpet1" style="rounded=0;whiteSpace=wrap;html=1;fillStyle=auto;fillColor=default;gradientColor=none;" parent="193" vertex="1">
                    <mxGeometry width="140.00000000000003" height="16" as="geometry"/>
                </mxCell>
                <mxCell id="196" value="" style="group" parent="1" vertex="1" connectable="0">
                    <mxGeometry x="1990" y="340" width="140" height="80" as="geometry"/>
                </mxCell>
                <mxCell id="197" value="ペット5&lt;br&gt;5部位のパーツ" style="rounded=0;whiteSpace=wrap;html=1;fillStyle=auto;fillColor=default;gradientColor=none;" parent="196" vertex="1">
                    <mxGeometry width="140.00000000000003" height="80" as="geometry"/>
                </mxCell>
                <mxCell id="198" value="imgpet5" style="rounded=0;whiteSpace=wrap;html=1;fillStyle=auto;fillColor=default;gradientColor=none;" parent="196" vertex="1">
                    <mxGeometry width="140.00000000000003" height="16" as="geometry"/>
                </mxCell>
                <mxCell id="199" value="" style="group" parent="1" vertex="1" connectable="0">
                    <mxGeometry x="1840" y="340" width="140" height="80" as="geometry"/>
                </mxCell>
                <mxCell id="200" value="ペット4&lt;br&gt;5部位のパーツ" style="rounded=0;whiteSpace=wrap;html=1;fillStyle=auto;fillColor=default;gradientColor=none;" parent="199" vertex="1">
                    <mxGeometry width="140.00000000000003" height="80" as="geometry"/>
                </mxCell>
                <mxCell id="201" value="imgpet4" style="rounded=0;whiteSpace=wrap;html=1;fillStyle=auto;fillColor=default;gradientColor=none;" parent="199" vertex="1">
                    <mxGeometry width="140.00000000000003" height="16" as="geometry"/>
                </mxCell>
                <mxCell id="202" value="" style="group" parent="1" vertex="1" connectable="0">
                    <mxGeometry x="1690" y="340" width="140" height="80" as="geometry"/>
                </mxCell>
                <mxCell id="203" value="ペット3&lt;br&gt;5部位のパーツ" style="rounded=0;whiteSpace=wrap;html=1;fillStyle=auto;fillColor=default;gradientColor=none;" parent="202" vertex="1">
                    <mxGeometry width="140.00000000000003" height="80" as="geometry"/>
                </mxCell>
                <mxCell id="204" value="imgpet3" style="rounded=0;whiteSpace=wrap;html=1;fillStyle=auto;fillColor=default;gradientColor=none;" parent="202" vertex="1">
                    <mxGeometry width="140.00000000000003" height="16" as="geometry"/>
                </mxCell>
                <mxCell id="205" value="" style="group" parent="1" vertex="1" connectable="0">
                    <mxGeometry x="1540" y="340" width="140" height="80" as="geometry"/>
                </mxCell>
                <mxCell id="206" value="ペット2&lt;br&gt;5部位のパーツ" style="rounded=0;whiteSpace=wrap;html=1;fillStyle=auto;fillColor=default;gradientColor=none;" parent="205" vertex="1">
                    <mxGeometry width="140.00000000000003" height="80" as="geometry"/>
                </mxCell>
                <mxCell id="207" value="imgpet2" style="rounded=0;whiteSpace=wrap;html=1;fillStyle=auto;fillColor=default;gradientColor=none;" parent="205" vertex="1">
                    <mxGeometry width="140.00000000000003" height="16" as="geometry"/>
                </mxCell>
                <mxCell id="208" value="" style="group" parent="1" vertex="1" connectable="0">
                    <mxGeometry x="1540" y="450" width="140" height="80" as="geometry"/>
                </mxCell>
                <mxCell id="209" value="ペット2&lt;br&gt;モーション3部位" style="rounded=0;whiteSpace=wrap;html=1;fillStyle=auto;fillColor=default;gradientColor=none;" parent="208" vertex="1">
                    <mxGeometry width="140.00000000000003" height="80" as="geometry"/>
                </mxCell>
                <mxCell id="210" value="imgmotion2" style="rounded=0;whiteSpace=wrap;html=1;fillStyle=auto;fillColor=default;gradientColor=none;" parent="208" vertex="1">
                    <mxGeometry width="140.00000000000003" height="16" as="geometry"/>
                </mxCell>
                <mxCell id="211" value="" style="group" parent="1" vertex="1" connectable="0">
                    <mxGeometry x="1990" y="450" width="140" height="80" as="geometry"/>
                </mxCell>
                <mxCell id="212" value="ペット5&lt;br&gt;モーション3部位" style="rounded=0;whiteSpace=wrap;html=1;fillStyle=auto;fillColor=default;gradientColor=none;" parent="211" vertex="1">
                    <mxGeometry width="140.00000000000003" height="80" as="geometry"/>
                </mxCell>
                <mxCell id="213" value="imgmotion5" style="rounded=0;whiteSpace=wrap;html=1;fillStyle=auto;fillColor=default;gradientColor=none;" parent="211" vertex="1">
                    <mxGeometry width="140.00000000000003" height="16" as="geometry"/>
                </mxCell>
                <mxCell id="214" value="" style="group" parent="1" vertex="1" connectable="0">
                    <mxGeometry x="1840" y="450" width="140" height="80" as="geometry"/>
                </mxCell>
                <mxCell id="215" value="ペット4&lt;br&gt;モーション3部位" style="rounded=0;whiteSpace=wrap;html=1;fillStyle=auto;fillColor=default;gradientColor=none;" parent="214" vertex="1">
                    <mxGeometry width="140.00000000000003" height="80" as="geometry"/>
                </mxCell>
                <mxCell id="216" value="imgmotion4" style="rounded=0;whiteSpace=wrap;html=1;fillStyle=auto;fillColor=default;gradientColor=none;" parent="214" vertex="1">
                    <mxGeometry width="140.00000000000003" height="16" as="geometry"/>
                </mxCell>
                <mxCell id="217" value="" style="group" parent="1" vertex="1" connectable="0">
                    <mxGeometry x="1690" y="450" width="140" height="80" as="geometry"/>
                </mxCell>
                <mxCell id="218" value="ペット3&lt;br&gt;モーション3部位" style="rounded=0;whiteSpace=wrap;html=1;fillStyle=auto;fillColor=default;gradientColor=none;" parent="217" vertex="1">
                    <mxGeometry width="140.00000000000003" height="80" as="geometry"/>
                </mxCell>
                <mxCell id="219" value="imgmotion3" style="rounded=0;whiteSpace=wrap;html=1;fillStyle=auto;fillColor=default;gradientColor=none;" parent="217" vertex="1">
                    <mxGeometry width="140.00000000000003" height="16" as="geometry"/>
                </mxCell>
                <mxCell id="220" value="" style="group" parent="1" vertex="1" connectable="0">
                    <mxGeometry x="1390" y="230" width="140" height="80" as="geometry"/>
                </mxCell>
                <mxCell id="221" value="レア度１の背景" style="rounded=0;whiteSpace=wrap;html=1;fillStyle=auto;fillColor=default;gradientColor=none;" parent="220" vertex="1">
                    <mxGeometry width="140.00000000000003" height="80" as="geometry"/>
                </mxCell>
                <mxCell id="222" value="imgbackgroung_rare1" style="rounded=0;whiteSpace=wrap;html=1;fillStyle=auto;fillColor=default;gradientColor=none;" parent="220" vertex="1">
                    <mxGeometry width="140.00000000000003" height="16" as="geometry"/>
                </mxCell>
                <mxCell id="223" value="" style="group" parent="1" vertex="1" connectable="0">
                    <mxGeometry x="1390" y="560" width="140" height="80" as="geometry"/>
                </mxCell>
                <mxCell id="224" value="ペット1&lt;br&gt;帽子,服,靴,アクセサリー" style="rounded=0;whiteSpace=wrap;html=1;fillStyle=auto;fillColor=default;gradientColor=none;" parent="223" vertex="1">
                    <mxGeometry width="140.00000000000003" height="80" as="geometry"/>
                </mxCell>
                <mxCell id="225" value="imgcloset1" style="rounded=0;whiteSpace=wrap;html=1;fillStyle=auto;fillColor=default;gradientColor=none;" parent="223" vertex="1">
                    <mxGeometry width="140.00000000000003" height="16" as="geometry"/>
                </mxCell>
                <mxCell id="226" value="" style="group" parent="1" vertex="1" connectable="0">
                    <mxGeometry x="1540" y="560" width="140" height="80" as="geometry"/>
                </mxCell>
                <mxCell id="227" value="ペット2&lt;br&gt;帽子,服,靴,アクセサリー" style="rounded=0;whiteSpace=wrap;html=1;fillStyle=auto;fillColor=default;gradientColor=none;" parent="226" vertex="1">
                    <mxGeometry width="140.00000000000003" height="80" as="geometry"/>
                </mxCell>
                <mxCell id="228" value="imgcloset2" style="rounded=0;whiteSpace=wrap;html=1;fillStyle=auto;fillColor=default;gradientColor=none;" parent="226" vertex="1">
                    <mxGeometry width="140.00000000000003" height="16" as="geometry"/>
                </mxCell>
                <mxCell id="229" value="" style="group" parent="1" vertex="1" connectable="0">
                    <mxGeometry x="1990" y="560" width="140" height="80" as="geometry"/>
                </mxCell>
                <mxCell id="230" value="ペット5&lt;br&gt;帽子,服,靴,アクセサリー" style="rounded=0;whiteSpace=wrap;html=1;fillStyle=auto;fillColor=default;gradientColor=none;" parent="229" vertex="1">
                    <mxGeometry width="140.00000000000003" height="80" as="geometry"/>
                </mxCell>
                <mxCell id="231" value="imgcloset5" style="rounded=0;whiteSpace=wrap;html=1;fillStyle=auto;fillColor=default;gradientColor=none;" parent="229" vertex="1">
                    <mxGeometry width="140.00000000000003" height="16" as="geometry"/>
                </mxCell>
                <mxCell id="232" value="" style="group" parent="1" vertex="1" connectable="0">
                    <mxGeometry x="1840" y="560" width="140" height="80" as="geometry"/>
                </mxCell>
                <mxCell id="233" value="ペット4&lt;br&gt;帽子,服,靴,アクセサリー" style="rounded=0;whiteSpace=wrap;html=1;fillStyle=auto;fillColor=default;gradientColor=none;" parent="232" vertex="1">
                    <mxGeometry width="140.00000000000003" height="80" as="geometry"/>
                </mxCell>
                <mxCell id="234" value="imgcloset4" style="rounded=0;whiteSpace=wrap;html=1;fillStyle=auto;fillColor=default;gradientColor=none;" parent="232" vertex="1">
                    <mxGeometry width="140.00000000000003" height="16" as="geometry"/>
                </mxCell>
                <mxCell id="235" value="" style="group" parent="1" vertex="1" connectable="0">
                    <mxGeometry x="1690" y="560" width="140" height="80" as="geometry"/>
                </mxCell>
                <mxCell id="236" value="ペット3&lt;br&gt;帽子,服,靴,アクセサリー" style="rounded=0;whiteSpace=wrap;html=1;fillStyle=auto;fillColor=default;gradientColor=none;" parent="235" vertex="1">
                    <mxGeometry width="140.00000000000003" height="80" as="geometry"/>
                </mxCell>
                <mxCell id="237" value="imgcloset3" style="rounded=0;whiteSpace=wrap;html=1;fillStyle=auto;fillColor=default;gradientColor=none;" parent="235" vertex="1">
                    <mxGeometry width="140.00000000000003" height="16" as="geometry"/>
                </mxCell>
                <mxCell id="238" value="turn.js&lt;br&gt;にわとり画像回転" style="rounded=0;whiteSpace=wrap;html=1;strokeColor=#FFFF00;fillColor=#FFFFCC;" parent="1" vertex="1">
                    <mxGeometry x="890" y="1380" width="120" height="60" as="geometry"/>
                </mxCell>
            </root>
        </mxGraphModel>
    </diagram>
</mxfile>